<?xml version="1.0" encoding="iso-8859-1"?>
<!-- Generator: Adobe Illustrator 19.0.0, SVG Export Plug-In . SVG Version: 6.00 Build 0)  -->
<svg xmlns="http://www.w3.org/2000/svg" xmlns:xlink="http://www.w3.org/1999/xlink" version="1.1" id="Capa_1" x="0px" y="0px" viewBox="0 0 512 512" style="enable-background:new 0 0 512 512;" xml:space="preserve" width="512px" height="512px">
<g>
	<g>
		<g>
			<path d="M170.667,255.365c0,11.76,9.563,21.333,21.333,21.333s21.333-9.573,21.333-21.333c0-11.76-9.563-21.333-21.333-21.333     S170.667,243.604,170.667,255.365z" fill="#093546"/>
			<path d="M231.104,293.094c-1.604-2.323-4.083-3.917-6.875-4.427c-2.792-0.542-5.646,0.125-7.979,1.729     c-14.375,10-34.125,10-48.5,0c-2.333-1.604-5.208-2.271-7.979-1.729c-2.792,0.51-5.271,2.104-6.875,4.427l-36.417,52.625     c-3.354,4.844-2.146,11.479,2.688,14.833c21.521,14.927,46.708,22.813,72.833,22.813s51.313-7.885,72.833-22.813     c4.833-3.354,6.042-9.99,2.688-14.833L231.104,293.094z M140.375,348.667l24.479-35.375c16.958,7.979,37.333,7.979,54.292,0     l24.479,35.375C212.042,366.208,171.958,366.208,140.375,348.667z" fill="#093546"/>
			<path d="M308.917,275.625c5.479,0,10.146-4.219,10.604-9.792c2.167-26.094-3.604-51.844-16.667-74.458     c-13.063-22.646-32.479-40.521-56.188-51.688c-5.25-2.5-11.646-0.25-14.187,5.083l-27.354,57.865     c-1.208,2.563-1.354,5.5-0.396,8.167c0.958,2.656,2.938,4.833,5.5,6.042c7.896,3.729,14.375,9.677,18.729,17.188     c4.333,7.521,6.25,16.094,5.521,24.813c-0.25,2.823,0.646,5.615,2.479,7.781c1.833,2.156,4.458,3.5,7.271,3.74l63.792,5.229     C308.313,275.615,308.625,275.625,308.917,275.625z M255.75,249.896c-0.792-9.323-3.583-18.344-8.333-26.531     c-4.729-8.188-11.125-15.135-18.813-20.458L246.979,164c15.5,9.281,28.292,22.26,37.375,38.021c0.021,0.01,0.021,0.01,0.021,0.01     c9.083,15.75,13.938,33.333,14.25,51.385L255.75,249.896z" fill="#093546"/>
			<path d="M147.042,266.625c1.833-2.167,2.729-4.958,2.479-7.781c-0.729-8.719,1.188-17.292,5.521-24.813     c4.354-7.51,10.833-13.458,18.729-17.188c2.563-1.208,4.542-3.385,5.5-6.042c0.958-2.667,0.813-5.604-0.396-8.167l-27.354-57.865     c-2.542-5.313-8.875-7.615-14.188-5.083c-23.708,11.167-43.125,29.042-56.187,51.688c-13.063,22.615-18.833,48.365-16.667,74.458     c0.458,5.573,5.125,9.792,10.604,9.792c0.292,0,0.604-0.01,0.896-0.031l63.792-5.229     C142.583,270.125,145.208,268.781,147.042,266.625z M128.25,249.896l-42.875,3.521c0.313-18.052,5.167-35.635,14.25-51.385     c0,0,0,0,0.021-0.01c9.083-15.76,21.875-28.74,37.375-38.021l18.375,38.906c-7.688,5.323-14.083,12.271-18.813,20.458     C131.833,231.552,129.042,240.573,128.25,249.896z" fill="#093546"/>
			<path d="M457.604,405.344c-5.021-24.667-28.125-43.479-53.333-42.667c-4.563-22.219-23.104-39.458-47.229-42.271     c-3.639-6.443-8.891-11.704-15.061-15.469l14.79-7.396c3.604-1.813,5.896-5.5,5.896-9.542V83.368     C375.056,78.951,384,67.221,384,53.333c0-17.646-14.354-32-32-32H149.333V10.667C149.333,4.771,144.563,0,138.667,0H96     c-5.896,0-10.667,4.771-10.667,10.667v10.667H32c-17.646,0-32,14.354-32,32c0,13.888,8.944,25.617,21.333,30.035v366.596     C8.944,454.383,0,466.112,0,480c0,17.646,14.354,32,32,32h320h106.667C488.083,512,512,488.073,512,458.667     C512,428.906,486.896,404.417,457.604,405.344z M32,42.667h320c5.875,0,10.667,4.781,10.667,10.667     C362.667,59.219,357.875,64,352,64H32c-5.875,0-10.667-4.781-10.667-10.667C21.333,47.448,26.125,42.667,32,42.667z      M289.792,379.25l21.333,32c2.667,3.99,7.708,5.719,12.25,4.198l17.958-5.979V448H42.667V85.333h298.667v196.073l-36.771,18.385     c-3.042,1.531-5.188,4.427-5.75,7.792l-10.667,64C287.708,374.25,288.292,377,289.792,379.25z M352,490.667H32     c-5.875,0-10.667-4.781-10.667-10.667c0-5.885,4.792-10.667,10.667-10.667h320c5.875,0,10.667,4.781,10.667,10.667     C362.667,485.885,357.875,490.667,352,490.667z M458.667,490.667h-76.632C383.23,487.314,384,483.758,384,480     c0-13.888-8.944-25.617-21.333-30.035v-55.298c0-3.427-1.646-6.646-4.438-8.656c-2.792-2-6.333-2.594-9.604-1.458l-24.271,8.083     l-14.479-21.708L318.366,320H320c8.917,0,16.958,5.729,20,14.25c1.5,4.25,7.479,7.083,12,7.083c17.646,0,32,14.354,31.833,33.146     c-0.125,3.375,1.354,6.625,4,8.74c2.625,2.125,6.167,2.865,9.375,1.99c3.146-0.823,5.729-1.208,8.125-1.208     c17.646,0,32,14.354,31.833,33.146c-0.125,3.375,1.354,6.625,4,8.74c2.625,2.115,6.167,2.885,9.375,1.99     c3.146-0.823,5.729-1.208,8.125-1.208c17.646,0,32,14.354,32,32S476.313,490.667,458.667,490.667z" fill="#093546"/>
		</g>
	</g>
</g>
<g>
</g>
<g>
</g>
<g>
</g>
<g>
</g>
<g>
</g>
<g>
</g>
<g>
</g>
<g>
</g>
<g>
</g>
<g>
</g>
<g>
</g>
<g>
</g>
<g>
</g>
<g>
</g>
<g>
</g>
</svg>
